<svg width="1280" height="794" viewBox="0 0 1280 794" fill="none" xmlns="http://www.w3.org/2000/svg">
<path d="M0 0H1280V794H0V0Z" fill="#193364"/>
<path d="M73 102.542C73 74.9277 95.4127 52.542 123.027 52.542C343.685 52.542 516.747 52.542 695.241 52.542C706.098 52.542 716.976 52.542 727.885 52.542C859.587 52.542 995.958 52.542 1157.99 52.542C1185.61 52.542 1208 74.9277 1208 102.542V623C1208 650.614 1185.61 673 1158 673H123C95.3857 673 73 650.614 73 623V102.542Z" fill="#5D6868"/>
<path d="M748.061 39L758 53H739L748.061 39Z" fill="#5D6868"/>
</svg>
