<svg width="1135" height="621" viewBox="0 0 1135 621" fill="none" xmlns="http://www.w3.org/2000/svg">
<path d="M0 50.5419C0 22.9277 22.4127 0.541985 50.0269 0.541985C270.685 0.541985 443.747 0.541985 622.241 0.541985C633.098 0.541985 643.976 0.541985 654.885 0.541985C786.587 0.541985 922.958 0.541985 1084.99 0.541985C1112.61 0.541985 1135 22.9277 1135 50.542V571C1135 598.614 1112.61 621 1085 621H50C22.3857 621 0 598.614 0 571V50.5419Z" fill="#EEECE7"/>
<path d="M0 50.5419C0 22.9277 22.4127 0.541985 50.0269 0.541985C270.685 0.541985 443.747 0.541985 622.241 0.541985C633.098 0.541985 643.976 0.541985 654.885 0.541985C786.587 0.541985 922.958 0.541985 1084.99 0.541985C1112.61 0.541985 1135 22.9277 1135 50.542V571C1135 598.614 1112.61 621 1085 621H50C22.3857 621 0 598.614 0 571V50.5419Z" fill="#F7DFFF" fill-opacity="0.9"/>
</svg>
