<svg width="37" height="22" viewBox="0 0 37 22" fill="none" xmlns="http://www.w3.org/2000/svg">
<g filter="url(#filter0_i_446_1639)">
<rect width="37" height="22" rx="4" fill="url(#paint0_linear_446_1639)"/>
</g>
<path fill-rule="evenodd" clip-rule="evenodd" d="M25 5C25.5523 5 26 5.44772 26 6V16C26 16.5523 25.5523 17 25 17H12C11.4477 17 11 16.5523 11 16V6C11 5.44772 11.4477 5 12 5H25ZM17 6H25V16H17V6ZM16 16H12L12 6H16V16Z" fill="#FCFDFD"/>
<path d="M13 7H15V8H13V7Z" fill="#979798"/>
<path d="M13 9H15V10H13V9Z" fill="#979798"/>
<path d="M15 11H13V12H15V11Z" fill="#979798"/>
<defs>
<filter id="filter0_i_446_1639" x="0" y="0" width="37" height="22" filterUnits="userSpaceOnUse" color-interpolation-filters="sRGB">
<feFlood flood-opacity="0" result="BackgroundImageFix"/>
<feBlend mode="normal" in="SourceGraphic" in2="BackgroundImageFix" result="shape"/>
<feColorMatrix in="SourceAlpha" type="matrix" values="0 0 0 0 0 0 0 0 0 0 0 0 0 0 0 0 0 0 127 0" result="hardAlpha"/>
<feOffset dy="0.5"/>
<feComposite in2="hardAlpha" operator="arithmetic" k2="-1" k3="1"/>
<feColorMatrix type="matrix" values="0 0 0 0 1 0 0 0 0 1 0 0 0 0 1 0 0 0 0.2 0"/>
<feBlend mode="normal" in2="shape" result="effect1_innerShadow_446_1639"/>
</filter>
<linearGradient id="paint0_linear_446_1639" x1="18.5" y1="0" x2="18.5" y2="22" gradientUnits="userSpaceOnUse">
<stop stop-color="#707071"/>
<stop offset="1" stop-color="#6A6A6A"/>
</linearGradient>
</defs>
</svg>
