<svg width="46" height="46" viewBox="0 0 46 46" fill="none" xmlns="http://www.w3.org/2000/svg">
<path d="M19.4421 12.7028C20.9498 8.94423 21.7036 7.06494 22.9999 7.06494C24.2962 7.06494 25.05 8.94423 26.5577 12.7028L26.6279 12.8778C27.4796 15.0012 27.9055 16.063 28.7735 16.7083C29.6414 17.3536 30.7808 17.4556 33.0596 17.6597L33.4715 17.6966C37.201 18.0306 39.0657 18.1976 39.4648 19.384C39.8638 20.5704 38.4789 21.8303 35.7093 24.3501L34.7849 25.1911C33.3828 26.4667 32.6818 27.1045 32.3551 27.9404C32.2941 28.0963 32.2434 28.2561 32.2034 28.4186C31.9886 29.29 32.1939 30.2153 32.6045 32.0658L32.7323 32.6418C33.4868 36.0426 33.8641 37.743 33.2054 38.4764C32.9592 38.7505 32.6393 38.9478 32.2839 39.0448C31.3329 39.3043 29.9826 38.204 27.2821 36.0035C25.5089 34.5586 24.6223 33.8361 23.6043 33.6736C23.2039 33.6097 22.7959 33.6097 22.3955 33.6736C21.3775 33.8361 20.4909 34.5586 18.7177 36.0035C16.0172 38.204 14.6669 39.3043 13.7159 39.0448C13.3605 38.9478 13.0406 38.7505 12.7944 38.4764C12.1357 37.743 12.513 36.0426 13.2675 32.6418L13.3953 32.0658C13.8059 30.2153 14.0112 29.29 13.7964 28.4186C13.7563 28.2561 13.7057 28.0963 13.6447 27.9404C13.318 27.1045 12.617 26.4667 11.2149 25.1911L10.2905 24.3501C7.52086 21.8303 6.13603 20.5704 6.53504 19.384C6.93404 18.1976 8.79878 18.0306 12.5283 17.6966L12.9402 17.6597C15.219 17.4556 16.3584 17.3536 17.2263 16.7083C18.0943 16.063 18.5202 15.0012 19.3719 12.8778L19.4421 12.7028Z" fill="#7E869E" fill-opacity="0.25" stroke="#222222" stroke-width="1.4"/>
</svg>
