<svg width="50" height="50" viewBox="0 0 50 50" fill="none" xmlns="http://www.w3.org/2000/svg">
<path fill-rule="evenodd" clip-rule="evenodd" d="M25 5.75C20.3173 5.75 16.3245 8.69809 14.7738 12.8378C14.6189 13.2514 14.5141 13.5297 14.4182 13.7293C14.3216 13.9304 14.2657 13.9802 14.2455 13.9942C14.2163 14.0145 14.1553 14.0453 13.9756 14.0636C13.7887 14.0827 13.5396 14.0833 13.1569 14.0833H12.5C8.77208 14.0833 5.75 17.1054 5.75 20.8333C5.75 24.5613 8.77208 27.5833 12.5 27.5833H17.5049L18.5049 26.5833H12.5C9.32436 26.5833 6.75 24.009 6.75 20.8333C6.75 17.6577 9.32436 15.0833 12.5 15.0833H13.1569H13.1817C13.5327 15.0833 13.8334 15.0834 14.0771 15.0585C14.3339 15.0323 14.5874 14.974 14.8152 14.8161C15.052 14.6519 15.2004 14.4104 15.3196 14.1623C15.4373 13.9174 15.5575 13.5965 15.702 13.2108L15.702 13.2107L15.7103 13.1886C17.1194 9.42659 20.7478 6.75 25 6.75C29.2522 6.75 32.8806 9.42659 34.2897 13.1886L34.298 13.2107C34.4425 13.5965 34.5627 13.9174 34.6804 14.1623C34.7996 14.4104 34.948 14.6519 35.1848 14.8161C35.4126 14.974 35.6661 15.0323 35.9229 15.0585C36.1666 15.0834 36.4673 15.0833 36.8183 15.0833H36.8431H39.75C41.683 15.0833 43.25 16.6503 43.25 18.5833V23.0833C43.25 25.0163 41.683 26.5833 39.75 26.5833H31.4951L32.4951 27.5833H39.75C42.2353 27.5833 44.25 25.5686 44.25 23.0833V18.5833C44.25 16.0981 42.2353 14.0833 39.75 14.0833H36.8431C36.4604 14.0833 36.2113 14.0827 36.0244 14.0636C35.8447 14.0453 35.7837 14.0145 35.7545 13.9942C35.7343 13.9802 35.6784 13.9304 35.5818 13.7293C35.4859 13.5297 35.3811 13.2514 35.2262 12.8378C33.6755 8.69809 29.6827 5.75 25 5.75Z" fill="#222222"/>
<path d="M25.0001 25L24.6465 24.6464L25.0001 24.2929L25.3536 24.6464L25.0001 25ZM25.5001 43.75C25.5001 44.0261 25.2762 44.25 25.0001 44.25C24.7239 44.25 24.5001 44.0261 24.5001 43.75L25.5001 43.75ZM16.3132 32.9798L24.6465 24.6464L25.3536 25.3536L17.0203 33.6869L16.3132 32.9798ZM25.3536 24.6464L33.687 32.9798L32.9799 33.6869L24.6465 25.3536L25.3536 24.6464ZM25.5001 25L25.5001 43.75L24.5001 43.75L24.5001 25L25.5001 25Z" fill="#222222"/>
</svg>
