<svg width="11" height="15" viewBox="0 0 11 15" fill="none" xmlns="http://www.w3.org/2000/svg">
<path d="M7.61153 3.81482C7.78536 4.02936 8.1003 4.06232 8.31466 3.88849C8.52926 3.7146 8.56222 3.39978 8.38839 3.18518L6.00631 0.245728C5.97652 0.208923 5.94234 0.174377 5.90377 0.143311C5.86983 0.116028 5.83224 0.0914307 5.79147 0.0705566C5.73483 0.0415039 5.6733 0.0206299 5.60885 0.00939941C5.5732 0.00323486 5.53683 0 5.49996 0C5.39596 0 5.29635 0.0255127 5.20846 0.0705566C5.12106 0.115173 5.04928 0.176697 4.99337 0.245728L2.61153 3.18518C2.43771 3.39972 2.47067 3.7146 2.68526 3.88849C2.89962 4.06232 3.21456 4.02936 3.38839 3.81482L4.99996 1.82611V10H5.99996V1.82611L7.61153 3.81482Z" fill="#FCFDFF"/>
<path d="M6 5H5V6H6V5Z" fill="#FCFDFF"/>
<path d="M7 6H10V14H1V6H4V5H1C0.447754 5 0 5.44769 0 6V14C0 14.5523 0.447754 15 1 15H10C10.5522 15 11 14.5523 11 14V6C11 5.44769 10.5522 5 10 5H7V6Z" fill="#FCFDFF"/>
</svg>
